<svg xmlns="http://www.w3.org/2000/svg" version="1.0" viewBox="0 0 280 280"><defs/><defs><linearGradient id="a" x1="0%" x2="50%" y2="0%"><stop offset="0%" stop-color="#00b8ff"/><stop offset="50%" stop-color="#00b8ff"/><stop offset="50%" stop-color="#fff"/><stop offset="100%" stop-color="#fff"/></linearGradient></defs><circle cx="140" cy="140" r="130" fill="#22222f"/><path fill="url(#a)" d="M162 183c44-43 48-51 48-94 0-33-5-51-20-64-20-18-21-18-43 3-13 12-29 22-37 22S86 40 73 28C51 7 50 7 30 25 16 38 10 56 10 89c0 41 5 50 47 93 26 26 50 48 52 48 3 0 27-21 53-47zm-90-46c-50-52-44-62 38-62 57 0 70 3 70 16s-59 79-71 79c-3 0-19-15-37-33z" transform="matrix(1 0 0 -1 30 260)"/></svg>
